<svg xmlns="http://www.w3.org/2000/svg" width="34" height="34" viewBox="0 0 34 34">
  <g id="Group_94" data-name="Group 94" transform="translate(-374 -28)">
    <path id="Path_37" data-name="Path 37" d="M5,0H29a5,5,0,0,1,5,5V29a5,5,0,0,1-5,5H5a5,5,0,0,1-5-5V5A5,5,0,0,1,5,0Z" transform="translate(374 28)" fill="#012311"/>
    <path id="Path_38" data-name="Path 38" d="M1,0H19a1,1,0,0,1,0,2H1A1,1,0,0,1,1,0Z" transform="translate(383.222 51.142) rotate(-45)" fill="#fff"/>
    <path id="Path_39" data-name="Path 39" d="M1,0H19a1,1,0,0,1,0,2H1A1,1,0,0,1,1,0Z" transform="translate(384.636 37) rotate(45)" fill="#fff"/>
  </g>
</svg>
