<svg xmlns="http://www.w3.org/2000/svg" width="1579.741" height="1835.772" viewBox="0 0 1579.741 1835.772">
  <g id="Group_69" data-name="Group 69" transform="translate(162.895 544.617)">
    <rect id="Rectangle_84" data-name="Rectangle 84" width="187" height="964" rx="93.5" transform="translate(588.187 -253.95) rotate(47)" fill="#0eff8f" opacity="0.1"/>
    <path id="Rectangle_86" data-name="Rectangle 86" d="M0,0H187a0,0,0,0,1,0,0V864A100,100,0,0,1,87,964H0a0,0,0,0,1,0,0V0A0,0,0,0,1,0,0Z" transform="translate(1289.312 -544.617) rotate(47)" fill="#0eff8f" opacity="0.1"/>
    <path id="Rectangle_91" data-name="Rectangle 91" d="M100,0h87a0,0,0,0,1,0,0V964a0,0,0,0,1,0,0H0a0,0,0,0,1,0,0V100A100,100,0,0,1,100,0Z" transform="translate(1289.312 -181.617) rotate(47)" fill="#0eff8f" opacity="0.03"/>
    <path id="Rectangle_85" data-name="Rectangle 85" d="M100,0h87a0,0,0,0,1,0,0V964a0,0,0,0,1,0,0H0a0,0,0,0,1,0,0V100A100,100,0,0,1,100,0Z" transform="translate(542.13 133.945) rotate(47)" fill="#0eff8f" opacity="0.03"/>
    <path id="Rectangle_90" data-name="Rectangle 90" d="M0,0H187a0,0,0,0,1,0,0V864A100,100,0,0,1,87,964H0a0,0,0,0,1,0,0V0A0,0,0,0,1,0,0Z" transform="translate(542.13 496.945) rotate(47)" fill="#0eff8f" opacity="0.1"/>
  </g>
</svg>
