<svg xmlns="http://www.w3.org/2000/svg" width="12.696" height="17.581" viewBox="0 0 12.696 17.581"><path d="M-596.652,398.581a1.288,1.288,0,0,1-1.127-.65l-3.765-6.513c-.014-.025-.027-.049-.039-.073a6.328,6.328,0,0,1-1.04-1.84,6.329,6.329,0,0,1-.376-2.157,6.307,6.307,0,0,1,1.859-4.489A6.307,6.307,0,0,1-596.652,381a6.306,6.306,0,0,1,4.489,1.859,6.307,6.307,0,0,1,1.859,4.489,6.331,6.331,0,0,1-.376,2.157,6.325,6.325,0,0,1-1.039,1.839c-.014.026-.027.051-.04.074l-3.766,6.513A1.289,1.289,0,0,1-596.652,398.581Zm0-14a2.77,2.77,0,0,0-2.767,2.767,2.77,2.77,0,0,0,2.767,2.767,2.77,2.77,0,0,0,2.767-2.767A2.77,2.77,0,0,0-596.652,384.581Z" transform="translate(603 -381)"/></svg>