<svg xmlns="http://www.w3.org/2000/svg" width="633.508" height="449.432" viewBox="0 0 633.508 449.432"><g transform="translate(-0.161 212.216)"><path d="M122.4-11.594c37.372,132.4,122.4,54.8,122.4,122.4A122.4,122.4,0,1,1,0,110.8C0,43.2,85.023-143.99,122.4-11.594Z" transform="translate(181.076 35.261) rotate(-30)" fill="#ccffe7"/><path d="M122.4-11.594c37.372,132.4,122.4,54.8,122.4,122.4A122.4,122.4,0,1,1,0,110.8C0,43.2,85.023-143.99,122.4-11.594Z" transform="translate(29.076 -27.739) rotate(-30)" fill="#ccffe7"/><path d="M122.4-11.594c37.372,132.4,122.4,54.8,122.4,122.4A122.4,122.4,0,1,1,0,110.8C0,43.2,85.023-143.99,122.4-11.594Z" transform="translate(305.076 -39.739) rotate(-30)" fill="#ccffe7"/></g></svg>