<svg xmlns="http://www.w3.org/2000/svg" width="20" height="15.234" viewBox="0 0 20 15.234"><g transform="translate(0 -61)"><g transform="translate(1.005 61)"><path d="M42.958,61H26.474a1.737,1.737,0,0,0-.753.176l8.956,8.956L36.684,68.2h0l7.027-7.026A1.738,1.738,0,0,0,42.958,61Z" transform="translate(-25.721 -61)"/></g><g transform="translate(13.211 62.005)"><path d="M344.826,86.728l-6.613,6.612,6.612,6.612A1.738,1.738,0,0,0,345,99.2V87.481A1.737,1.737,0,0,0,344.826,86.728Z" transform="translate(-338.213 -86.728)"/></g><g transform="translate(0 62.005)"><path d="M.176,86.721A1.737,1.737,0,0,0,0,87.474V99.193a1.738,1.738,0,0,0,.176.753l6.613-6.612Z" transform="translate(0 -86.721)"/></g><g transform="translate(1.004 69.446)"><path d="M37.092,277.211l-2.008,1.929a.586.586,0,0,1-.829,0l-1.93-1.929-6.613,6.612a1.737,1.737,0,0,0,.753.176H42.952a1.737,1.737,0,0,0,.753-.176Z" transform="translate(-25.714 -277.211)"/></g></g></svg>