<svg xmlns="http://www.w3.org/2000/svg" width="34" height="34" viewBox="0 0 34 34">
  <g id="Group_96" data-name="Group 96" transform="translate(-337 -28)">
    <path id="Path_33" data-name="Path 33" d="M5,0H29a5,5,0,0,1,5,5V29a5,5,0,0,1-5,5H5a5,5,0,0,1-5-5V5A5,5,0,0,1,5,0Z" transform="translate(337 28)" fill="#012311"/>
    <g id="Group_95" data-name="Group 95">
      <path id="Path_34" data-name="Path 34" d="M1,0H19a1,1,0,0,1,0,2H1A1,1,0,0,1,1,0Z" transform="translate(344 52)" fill="#fff"/>
      <path id="Path_35" data-name="Path 35" d="M1,0H19a1,1,0,0,1,0,2H1A1,1,0,0,1,1,0Z" transform="translate(344 36)" fill="#fff"/>
      <path id="Path_36" data-name="Path 36" d="M1,0H14a1,1,0,0,1,0,2H1A1,1,0,0,1,1,0Z" transform="translate(347 44)" fill="#fff"/>
    </g>
  </g>
</svg>
